<?xml version="1.0" encoding="UTF-8" standalone="no"?>
<svg
   viewBox="0 0 128 128"
   version="1.1"
   id="svg8"
   sodipodi:docname="bootstrap.svg"
   inkscape:version="1.2 (dc2aedaf03, 2022-05-15)"
   xmlns:inkscape="http://www.inkscape.org/namespaces/inkscape"
   xmlns:sodipodi="http://sodipodi.sourceforge.net/DTD/sodipodi-0.dtd"
   xmlns="http://www.w3.org/2000/svg"
   xmlns:svg="http://www.w3.org/2000/svg">
  <defs
     id="defs12" />
  <sodipodi:namedview
     id="namedview10"
     pagecolor="#ffffff"
     bordercolor="#666666"
     borderopacity="1.0"
     inkscape:pageshadow="2"
     inkscape:pageopacity="0.0"
     inkscape:pagecheckerboard="0"
     showgrid="false"
     inkscape:zoom="4.1171875"
     inkscape:cx="50.641366"
     inkscape:cy="75.779886"
     inkscape:window-width="1366"
     inkscape:window-height="713"
     inkscape:window-x="0"
     inkscape:window-y="0"
     inkscape:window-maximized="1"
     inkscape:current-layer="svg8"
     inkscape:showpageshadow="2"
     inkscape:deskcolor="#d1d1d1" />
  <path
     d="m 27.235,13.885 c -7.177,0 -12.486,6.284 -12.249,13.099 0.228,6.546 -0.068,15.026 -2.203,21.94 -2.14,6.936 -5.76,11.319 -11.673,11.883 v 6.387 c 5.913,0.563 9.533,4.947 11.673,11.883 2.135,6.914 2.43,15.394 2.203,21.94 -0.238,6.815 5.072,13.098 12.249,13.098 h 73.54 c 7.177,0 12.486,-6.284 12.249,-13.098 -0.228,-6.546 0.068,-15.026 2.202,-21.94 2.14,-6.935 5.751,-11.319 11.664,-11.883 v -6.387 c -5.913,-0.563 -9.523,-4.947 -11.664,-11.883 -2.134,-6.914 -2.43,-15.394 -2.202,-21.94 0.237,-6.815 -5.072,-13.099 -12.25,-13.099 z m 58.114,61.686 c 0,9.384 -7.002,15.073 -18.621,15.073 H 45.306 A 0.491,0.491 0 0 1 44.815,90.153 V 37.827 a 0.491,0.491 0 0 1 0.491,-0.492 h 21.309 c 9.689,0 16.047,5.246 16.047,13.3 0,5.653 -4.277,10.713 -9.727,11.6 v 0.296 c 7.418,0.813 12.414,5.948 12.414,13.04 z M 64.571,44.096 H 53.293 v 15.922 h 9.5 c 7.342,0 11.391,-2.955 11.391,-8.238 0,-4.95 -3.481,-7.684 -9.613,-7.684 z m -11.278,22.24 v 17.548 h 11.695 c 7.645,0 11.695,-3.066 11.695,-8.83 0,-5.763 -4.163,-8.718 -12.187,-8.718 z"
     fill="#7952b3"
     id="path2" />
</svg>
