<svg width="51" height="50" viewBox="0 0 51 50" fill="none" xmlns="http://www.w3.org/2000/svg">
<path d="M49.5142 47.9621L48.4923 46.9711C47.524 45.6852 46.2783 44.5555 44.9708 43.6176C43.9283 42.8691 41.5876 41.8582 41.1525 40.6453L41.0724 40.5691C41.8119 40.4855 42.6751 40.2184 43.3576 40.0352C44.5037 39.7281 45.4497 39.8074 46.6333 39.502C47.1669 39.3496 47.7658 39.1969 48.1564 39.0445V38.7398C47.7658 38.1262 47.2083 37.3137 46.556 36.7582C44.8494 35.3051 43.0244 33.8531 41.1064 32.6422C40.0427 31.9711 38.7466 31.5348 37.6197 30.9656C37.2404 30.7738 36.5837 30.6742 36.333 30.3555C35.7404 29.6008 35.4236 28.6438 34.9665 27.7645C34.0099 25.9219 33.0724 23.9098 32.2247 21.9711C31.6466 20.6492 31.2705 19.3461 30.5494 18.1602C27.0884 12.4699 23.3638 9.03594 17.5935 5.66016C16.365 4.94219 14.8869 4.65899 13.3244 4.28789C12.4869 4.2375 11.6482 4.18633 10.8099 4.13516C10.2978 3.92188 9.76537 3.2957 9.28568 2.9918C7.37318 1.78399 2.46967 -0.842967 1.05365 2.61094C0.159512 4.79102 2.38959 6.91758 3.18725 8.02266C3.74779 8.79688 4.46459 9.66602 4.8642 10.5375C5.12787 11.1105 5.17279 11.6852 5.39818 12.291C5.95209 13.784 6.43373 15.4082 7.15092 16.7875C7.51303 17.4859 7.91225 18.2211 8.37045 18.8453C8.65092 19.2285 9.13217 19.3973 9.20834 19.9887C8.73803 20.6473 8.71107 21.6699 8.44662 22.5043C7.25522 26.2602 7.70522 30.9289 9.43764 33.7086C9.96889 34.5625 11.2212 36.3926 12.9435 35.6902C14.4497 35.077 14.2037 33.1754 14.6345 31.4981C14.7318 31.1184 14.5622 30.8387 14.9529 30.5836V30.6598C15.3525 31.587 15.7801 32.502 16.2349 33.4035C17.2505 35.0391 18.9259 36.7481 20.4529 37.9012C21.2447 38.4992 21.9841 39.5328 22.7654 39.8828V39.8434H22.8517C22.6537 39.4527 22.3431 39.3875 22.09 39.1387C21.4935 38.5543 20.8298 37.8176 20.3372 37.1477C18.9482 35.2621 17.7208 33.1938 16.6025 31.0453C16.0681 30.0195 15.6037 28.8855 15.1537 27.8418C14.9806 27.4395 14.9826 26.8293 14.6208 26.6211C14.1275 27.3859 13.4013 28.0039 13.0197 28.9074C12.4099 30.3512 12.3314 32.1121 12.1052 33.9375C11.9712 33.9852 12.031 33.9523 11.9525 34.0133C10.8908 33.7574 10.5181 32.6648 10.1232 31.727C9.12514 29.3559 8.93998 25.5383 9.81811 22.8094C10.0454 22.1027 11.0724 19.8793 10.6564 19.2266C10.4579 18.5762 9.80326 18.1992 9.43725 17.702C8.98373 17.0871 8.53139 16.2777 8.21732 15.5676C7.40053 13.7195 7.01967 11.6441 6.15951 9.77539C5.74818 8.88203 5.05326 7.97774 4.48256 7.18399C3.85092 6.30391 3.14311 5.65586 2.65287 4.59219C2.47904 4.21406 2.24232 3.6086 2.50053 3.21992C2.58256 2.95781 2.69857 2.84844 2.95795 2.76289C3.40053 2.42188 4.631 2.87617 5.09193 3.06719C6.3142 3.575 7.33451 4.04375 8.37006 4.72969C8.86654 5.05938 9.36967 5.46797 9.97045 5.8586H10.6564C11.7294 5.8586 12.9314 5.94922 13.9341 6.25391C15.7056 6.79258 17.2935 7.6375 18.7357 8.54805C23.1287 11.3223 26.7204 15.2746 29.1779 19.9848C29.5732 20.7434 29.7443 21.4688 30.0923 22.273C30.7947 23.8953 31.6798 25.5652 32.3787 27.1516C33.0763 28.7348 33.756 30.332 34.7419 31.6492C35.2603 32.3414 37.2619 32.7133 38.1716 33.098C38.8095 33.3672 39.8544 33.6484 40.4583 34.0121C41.6119 34.7082 42.7294 35.5371 43.8122 36.2992C44.3529 36.6797 46.0154 37.5156 46.0986 38.2047C43.4177 38.1313 41.3704 38.3813 39.6201 39.1191C39.1228 39.3289 38.329 39.3348 38.2478 39.9578C38.5212 40.2441 38.5638 40.6723 38.781 41.0246C39.1986 41.7004 39.9044 42.6074 40.5341 43.0824C41.2224 43.602 41.931 44.157 42.6685 44.6066C43.9806 45.4063 45.4447 45.8633 46.7079 46.6645C47.4525 47.1371 48.254 47.732 48.9794 48.2648C49.3388 48.5285 49.3275 48.9383 50.1087 49.1035V49.0277C49.7185 48.7172 49.7392 48.2883 49.5142 47.9621ZM12.0287 9.16602C11.4697 9.15547 11.0466 9.22735 10.656 9.31797V9.375H10.7333C11.0001 9.76563 11.4708 10.2852 11.8001 10.757L12.5626 12.3617L12.638 12.2887C13.1103 11.9555 13.3267 11.425 13.324 10.6125C13.1353 10.4137 13.1068 10.1648 12.9435 9.92735C12.7255 9.61133 12.3033 9.43203 12.0287 9.16602Z" fill="#00618A"/>
</svg>
