<svg width="76" height="40" viewBox="0 0 76 40" fill="none" xmlns="http://www.w3.org/2000/svg">
<path d="M38 0C17.014 0 0 8.75075 0 19.5449C0 30.3391 17.014 39.0899 38 39.0899C58.986 39.0899 76 30.3391 76 19.5449C76 8.75075 58.986 0 38 0ZM28.1122 23.3528C27.2053 24.2139 26.1983 24.5693 25.0893 24.9354C23.9803 25.3022 22.569 25.2264 20.8529 25.2264H16.9636L15.8857 31.5392H11.3445L15.3968 10.0758H24.1296C26.7569 10.0758 28.6732 10.8428 29.878 12.2423C31.0828 13.6419 31.4448 15.6285 30.9646 18.1366C30.7662 19.17 30.4322 20.1308 29.9607 20.9868C29.4722 21.87 28.8482 22.6687 28.1122 23.3528V23.3528ZM41.3675 25.2264L43.1594 16.1234C43.3634 15.0578 43.2888 14.2662 42.9349 13.8792C42.5803 13.4916 41.8265 13.2322 40.6739 13.2322H37.0726L34.752 25.2264H30.2462L34.2985 4.39431H38.8042L37.7269 10.0758H41.7407C44.2666 10.0758 46.0082 10.5903 46.9666 11.4842C47.9251 12.3781 48.2125 13.6027 47.8293 15.6051L45.9441 25.2264H41.3675ZM66.4083 18.17C66.2105 19.2034 65.8758 20.1478 65.405 21.0032C64.9335 21.8598 64.3177 22.6432 63.557 23.3528C62.6502 24.2139 61.6425 24.5693 60.5342 24.9354C59.4258 25.3022 58.0132 25.2264 56.2972 25.2264H52.4078L51.3305 31.5392H46.7894L50.841 10.0758H59.5744C62.2017 10.0758 64.1181 10.8428 65.3223 12.2423C66.5258 13.6419 66.8884 15.6626 66.4083 18.17V18.17ZM57.8534 13.2322H54.7428L53.0466 22.07H55.8095C57.6394 22.07 59.0041 21.887 59.8997 21.1863C60.7966 20.4868 61.4006 19.401 61.7147 17.7641C62.0157 16.1916 61.8789 14.965 61.3042 14.3186C60.7288 13.6722 59.5788 13.2322 57.8534 13.2322V13.2322ZM22.4091 13.2322H19.2979L17.6018 22.07H20.364C22.1946 22.07 23.5586 21.887 24.4549 21.1863C25.3512 20.4868 25.9557 19.401 26.2692 17.7641C26.5703 16.1916 26.4334 14.965 25.8587 14.3186C25.284 13.6722 24.1345 13.2322 22.4091 13.2322Z" fill="#6181B6"/>
</svg>
